#!OML:ASF H:\Dans Jumps\Project 1\Capture day 1\Session 1\subject.ASF
:FULLY-SPECIFIED
:DEGREES
109
root 0.297537 17.3541 -14.4569 9.05978 -0.918416 -1.56206
lowerback 5.02338 -0.173649 -0.341932
upperback 7.15923 -0.30303 1.88797
thorax 4.60603 -0.224784 2.14994
lowerneck -12.1915 0.727867 -1.07819
upperneck 32.515 1.37064 -0.156082
head 12.8445 0.446148 0.323747
rclavicle 6.65929e-015 -9.34288e-015
rhumerus -34.5042 -11.9965 -76.3126
rradius 34.6469
rwrist 19.7292
rhand -20.503 -25.9611
rfingers 7.12502
rthumb 5.85424 -55.8602
lclavicle 6.65929e-015 -9.34288e-015
lhumerus -30.932 -2.51801 86.3245
lradius 27.9825
lwrist 19.4949
lhand -28.6849 -6.62187
lfingers 7.12502
lthumb -2.04739 23.3481
rfemur -24.9381 -2.80843 19.9513
rtibia 32.0389
rfoot -14.7481 -4.13056
rtoes 6.76469
lfemur -24.1154 7.72071 -19.1449
ltibia 30.2861
lfoot -13.0261 5.12506
ltoes 3.72464
110
root 0.300251 17.3443 -14.4653 9.09515 -0.948386 -1.56016
lowerback 5.15333 -0.172748 -0.34968
upperback 7.19377 -0.301696 1.88909
thorax 4.56958 -0.224596 2.1559
lowerneck -12.2229 0.739957 -1.07431
upperneck 32.3916 1.39575 -0.18561
head 12.7996 0.454707 0.31491
rclavicle 3.08116e-015 -1.27222e-014
rhumerus -34.9033 -12.1246 -76.0074
rradius 34.5364
rwrist 19.7325
rhand -20.4233 -25.9664
rfingers 7.12502
rthumb 5.93119 -55.8634
lclavicle 3.08116e-015 -1.27222e-014
lhumerus -31.383 -2.47133 86.2499
lradius 27.9982
lwrist 19.9089
lhand -28.7235 -6.5815
lfingers 7.12502
lthumb -2.08468 23.3881
rfemur -25.1604 -2.80153 19.9445
rtibia 32.3098
rfoot -14.8254 -4.13989
rtoes 6.65869
lfemur -24.3377 7.76104 -19.1734
ltibia 30.5746
lfoot -13.1244 5.15077
ltoes 3.68427
111
root 0.303005 17.3343 -14.474 9.13095 -0.979009 -1.55567
lowerback 5.28424 -0.171571 -0.360979
upperback 7.23513 -0.300194 1.89047
thorax 4.53988 -0.224598 2.16415
lowerneck -12.2683 0.753846 -1.06573
upperneck 32.2658 1.4248 -0.222551
head 12.7569 0.464614 0.303064
rclavicle 1.88845e-015 -9.54166e-015
rhumerus -35.3238 -12.2352 -75.6984
rradius 34.4494
rwrist 19.717
rhand -20.2859 -26.0395
rfingers 7.12502
rthumb 6.06377 -55.9327
lclavicle 1.88845e-015 -9.54166e-015
lhumerus -31.8578 -2.4072 86.1717
lradius 28.0127
lwrist 20.3063
lhand -28.7603 -6.47484
lfingers 7.12502
lthumb -2.12025 23.4944
rfemur -25.3852 -2.79652 19.9349
rtibia 32.5836
rfoot -14.9048 -4.14839
rtoes 6.55068
lfemur -24.5621 7.80345 -19.2054
ltibia 30.864
lfoot -13.2225 5.17272
ltoes 3.64797
112
root 0.30568 17.3243 -14.483 9.16903 -1.01031 -1.55019
lowerback 5.41642 -0.168948 -0.376348
upperback 7.28082 -0.296985 1.89324
thorax 4.5141 -0.224047 2.17615
lowerneck -12.3205 0.768304 -1.05534
upperneck 32.1366 1.45579 -0.264327
head 12.7145 0.475013 0.289389
rclavicle 1.49089e-015 -9.14409e-015
rhumerus -35.7654 -12.3411 -75.3775
rradius 34.3663
rwrist 19.706
rhand -20.1283 -26.126
rfingers 7.12502
rthumb 6.21593 -56.0148
lclavicle 1.49089e-015 -9.14409e-015
lhumerus -32.3546 -2.32456 86.0899
lradius 28.0163
lwrist 20.682
lhand -28.7708 -6.30585
lfingers 7.12502
lthumb -2.13035 23.6633
rfemur -25.6132 -2.78928 19.9244
rtibia 32.8579
rfoot -14.9862 -4.15869
rtoes 6.44489
lfemur -24.7908 7.84801 -19.2389
ltibia 31.1546
lfoot -13.3196 5.1933
ltoes 3.60772
113
root 0.308281 17.3142 -14.492 9.21283 -1.04041 -1.54499
lowerback 5.54743 -0.165987 -0.394584
upperback 7.32774 -0.293525 1.89824
thorax 4.49037 -0.223603 2.19207
lowerneck -12.3781 0.784218 -1.04373
upperneck 32.0039 1.4889 -0.307293
head 12.672 0.486375 0.275408
rclavicle -4.96962e-016 9.93923e-015
rhumerus -36.2346 -12.4446 -75.0389
rradius 34.2789
rwrist 19.7068
rhand -19.9693 -26.1684
rfingers 7.12502
rthumb 6.36946 -56.0527
lclavicle -4.96962e-016 9.93923e-015
lhumerus -32.8751 -2.23255 86.0096
lradius 27.9974
lwrist 21.0415
lhand -28.79 -6.11618
lfingers 7.12502
lthumb -2.14891 23.8527
rfemur -25.8463 -2.78023 19.9145
rtibia 33.1316
rfoot -15.0694 -4.17162
rtoes 6.34332
lfemur -25.0273 7.89573 -19.2733
ltibia 31.4464
lfoot -13.417 5.20922
ltoes 3.56597
114
root 0.310886 17.3041 -14.5012 9.26209 -1.07169 -1.5421
lowerback 5.67773 -0.161423 -0.410831
upperback 7.37451 -0.287943 1.90339
thorax 4.46683 -0.222012 2.20698
lowerneck -12.4335 0.800925 -1.0302
upperneck 31.8648 1.5222 -0.349554
head 12.6264 0.498235 0.261401
rclavicle 5.96354e-016 2.38542e-015
rhumerus -36.7308 -12.5613 -74.6774
rradius 34.1698
rwrist 19.7371
rhand -19.8304 -26.119
rfingers 7.12502
rthumb 6.50359 -55.9992
lclavicle 5.96354e-016 2.38542e-015
lhumerus -33.42 -2.13098 85.9269
lradius 27.9502
lwrist 21.3799
lhand -28.8368 -5.93039
lfingers 7.12502
lthumb -2.19408 24.0381
rfemur -26.0846 -2.76622 19.9068
rtibia 33.405
rfoot -15.1541 -4.18842
rtoes 6.2422
lfemur -25.2716 7.94709 -19.3065
ltibia 31.7413
lfoot -13.5164 5.22462
ltoes 3.52623
115
root 0.313444 17.2938 -14.5104 9.31554 -1.10287 -1.54142
lowerback 5.8081 -0.156548 -0.426173
upperback 7.4231 -0.282015 1.90929
thorax 4.44521 -0.220257 2.22216
lowerneck -12.4938 0.817354 -1.0179
upperneck 31.7233 1.55441 -0.388906
head 12.5811 0.509862 0.248635
rclavicle 4.96962e-015 1.39149e-015
rhumerus -37.2509 -12.6984 -74.2887
rradius 34.0255
rwrist 19.8261
rhand -19.7385 -25.961
rfingers 7.12502
rthumb 6.59223 -55.8384
lclavicle 4.96962e-015 1.39149e-015
lhumerus -33.9851 -2.02472 85.8431
lradius 27.8715
lwrist 21.6987
lhand -28.9274 -5.81972
lfingers 7.12502
lthumb -2.28162 24.1478
rfemur -26.3281 -2.74777 19.9016
rtibia 33.6799
rfoot -15.24 -4.21016
rtoes 6.13832
lfemur -25.5232 8.00082 -19.3382
ltibia 32.0405
lfoot -13.6183 5.23953
ltoes 3.48595
116
root 0.316056 17.2833 -14.5197 9.37371 -1.13734 -1.54307
lowerback 5.93866 -0.150361 -0.439373
upperback 7.47263 -0.274347 1.91508
thorax 4.42445 -0.217546 2.23599
lowerneck -12.5545 0.833028 -1.01048
upperneck 31.5786 1.58493 -0.422887
head 12.5346 0.520902 0.238563
rclavicle -2.68359e-015 2.50469e-014
rhumerus -37.7999 -12.8417 -73.88
rradius 33.8605
rwrist 19.9496
rhand -19.6801 -25.7396
rfingers 7.12502
rthumb 6.64865 -55.6152
lclavicle -2.68359e-015 2.50469e-014
lhumerus -34.5706 -1.9099 85.7556
lradius 27.7566
lwrist 21.9844
lhand -29.0243 -5.78196
lfingers 7.12502
lthumb -2.37516 24.1846
rfemur -26.5798 -2.72413 19.8985
rtibia 33.9592
rfoot -15.3283 -4.23588
rtoes 6.02329
lfemur -25.7835 8.05742 -19.3688
ltibia 32.346
lfoot -13.7224 5.25725
ltoes 3.44297
117
root 0.318797 17.2724 -14.5293 9.43367 -1.17559 -1.54314
lowerback 6.07252 -0.142458 -0.449433
upperback 7.52463 -0.264228 1.91611
thorax 4.40433 -0.213342 2.24305
lowerneck -12.6142 0.846606 -1.00558
upperneck 31.4272 1.6106 -0.449694
head 12.4852 0.530507 0.230987
rclavicle -2.5842e-015 -1.07344e-014
rhumerus -38.3782 -12.9957 -73.4578
rradius 33.6729
rwrist 20.1275
rhand -19.6796 -25.4687
rfingers 7.12502
rthumb 6.64908 -55.3443
lclavicle -2.5842e-015 -1.07344e-014
lhumerus -35.1755 -1.79976 85.6611
lradius 27.6084
lwrist 22.2327
lhand -29.1385 -5.77534
lfingers 7.12502
lthumb -2.48551 24.1899
rfemur -26.8391 -2.69873 19.8933
rtibia 34.2464
rfoot -15.4195 -4.26195
rtoes 5.9088
lfemur -26.0499 8.116 -19.4025
ltibia 32.6592
lfoot -13.8304 5.27786
ltoes 3.40555
118
root 0.321758 17.2611 -14.539 9.49372 -1.22078 -1.54115
lowerback 6.20929 -0.130861 -0.456092
upperback 7.58049 -0.249037 1.91194
thorax 4.38643 -0.206333 2.24268
lowerneck -12.6705 0.855578 -1.00822
upperneck 31.2687 1.62831 -0.466759
head 12.4322 0.537077 0.227291
rclavicle 1.78906e-015 -7.95139e-015
rhumerus -38.9831 -13.1476 -73.0352
rradius 33.4903
rwrist 20.298
rhand -19.6684 -25.2838
rfingers 7.12502
rthumb 6.65992 -55.1591
lclavicle 1.78906e-015 -7.95139e-015
lhumerus -35.8004 -1.70005 85.5654
lradius 27.4144
lwrist 22.4067
lhand -29.3163 -5.92616
lfingers 7.12502
lthumb -2.65721 24.037
rfemur -27.1066 -2.67244 19.8849
rtibia 34.5449
rfoot -15.5152 -4.28569
rtoes 5.78496
lfemur -26.3213 8.17559 -19.44
ltibia 32.9819
lfoot -13.943 5.30608
ltoes 3.3607
119
root 0.324811 17.2492 -14.549 9.5534 -1.27237 -1.53491
lowerback 6.35017 -0.116516 -0.462783
upperback 7.63864 -0.230074 1.90184
thorax 4.36851 -0.197287 2.23605
lowerneck -12.7287 0.862654 -1.00848
upperneck 31.107 1.64239 -0.483084
head 12.3785 0.542463 0.222967
rclavicle 3.8763e-015 3.18055e-015
rhumerus -39.6215 -13.2914 -72.6149
rradius 33.3151
rwrist 20.4758
rhand -19.6762 -25.1654
rfingers 7.12502
rthumb 6.65241 -55.0409
lclavicle 3.8763e-015 3.18055e-015
lhumerus -36.4536 -1.61438 85.4725
lradius 27.169
lwrist 22.4836
lhand -29.5921 -6.36414
lfingers 7.12502
lthumb -2.92358 23.5956
rfemur -27.3839 -2.6463 19.8716
rtibia 34.8579
rfoot -15.6148 -4.30689
rtoes 5.65294
lfemur -26.5981 8.23656 -19.483
ltibia 33.3154
lfoot -14.0607 5.33811
ltoes 3.32302
120
root 0.327947 17.2365 -14.5591 9.61233 -1.32786 -1.52458
lowerback 6.49822 -0.0994875 -0.469588
upperback 7.69385 -0.207371 1.88699
thorax 4.34333 -0.186165 2.2244
lowerneck -12.7723 0.866937 -1.00888
upperneck 30.9391 1.65165 -0.497875
head 12.3194 0.546048 0.218474
rclavicle 2.48481e-015 -4.17448e-015
rhumerus -40.3077 -13.4186 -72.193
rradius 33.1474
rwrist 20.6611
rhand -19.719 -25.0903
rfingers 7.12502
rthumb 6.61109 -54.9672
lclavicle 2.48481e-015 -4.17448e-015
lhumerus -37.1495 -1.54014 85.382
lradius 26.8887
lwrist 22.4604
lhand -29.9424 -7.00346
lfingers 7.12502
lthumb -3.26184 22.9513
rfemur -27.6713 -2.62116 19.8535
rtibia 35.1873
rfoot -15.7194 -4.32553
rtoes 5.52498
lfemur -26.8805 8.29465 -19.5306
ltibia 33.661
lfoot -14.1826 5.37635
ltoes 3.29317
121
root 0.331021 17.2231 -14.5695 9.67098 -1.38643 -1.51132
lowerback 6.6503 -0.0810805 -0.478482
upperback 7.74702 -0.182807 1.86866
thorax 4.31373 -0.174069 2.21017
lowerneck -12.811 0.871361 -1.00026
upperneck 30.7708 1.66052 -0.518758
head 12.2595 0.549767 0.21004
rclavicle 3.8763e-015 8.34896e-015
rhumerus -41.0375 -13.5316 -71.7661
rradius 32.9788
rwrist 20.8697
rhand -19.8035 -25.0328
rfingers 7.12502
rthumb 6.52948 -54.9122
lclavicle 3.8763e-015 8.34896e-015
lhumerus -37.8767 -1.4381 85.2688
lradius 26.6104
lwrist 22.3784
lhand -30.2123 -7.523
lfingers 7.12502
lthumb -3.52246 22.4276
rfemur -27.9703 -2.59511 19.8325
rtibia 35.5336
rfoot -15.8269 -4.34373
rtoes 5.3991
lfemur -27.1708 8.35196 -19.5814
ltibia 34.0189
lfoot -14.3061 5.4234
ltoes 3.25943
122
root 0.333974 17.2088 -14.5802 9.73085 -1.44681 -1.4977
lowerback 6.80624 -0.0609599 -0.48724
upperback 7.79614 -0.155882 1.84797
thorax 4.27765 -0.160639 2.19325
lowerneck -12.8317 0.875343 -0.991903
upperneck 30.5936 1.66784 -0.538013
head 12.1925 0.553153 0.201936
rclavicle -6.36111e-015 7.95139e-015
rhumerus -41.8093 -13.629 -71.3346
rradius 32.8109
rwrist 21.0924
rhand -19.8996 -25.0209
rfingers 7.12502
rthumb 6.4367 -54.9031
lclavicle -6.36111e-015 7.95139e-015
lhumerus -38.6405 -1.32685 85.1462
lradius 26.3206
lwrist 22.2338
lhand -30.4626 -8.07185
lfingers 7.12502
lthumb -3.76421 21.8747
rfemur -28.2817 -2.56361 19.8107
rtibia 35.8957
rfoot -15.937 -4.36472
rtoes 5.28217
lfemur -27.4708 8.40856 -19.6325
ltibia 34.3886
lfoot -14.4305 5.47855
ltoes 3.22654
